<?xml version="1.0" encoding="UTF-8"?><svg id="Layer_1" xmlns="http://www.w3.org/2000/svg" viewBox="0 0 256 256"><path d="M47.28,173c-11.66,0-21.08-4.01-28.26-12.02-7.18-8.01-10.77-18.56-10.77-31.65s3.59-23.54,10.77-31.59c7.18-8.05,16.6-12.08,28.26-12.08,5.79,0,11.01.93,15.65,2.8,4.64,1.87,8.31,4.28,11.01,7.26,2.7,2.97,4.78,6.03,6.25,9.16,1.47,3.14,2.32,6.25,2.56,9.34h-19.52c-.87-2.54-2.62-4.9-5.24-7.08-2.62-2.18-6.19-3.27-10.71-3.27-5.71,0-10.17,2.38-13.39,7.14-3.21,4.76-4.82,10.87-4.82,18.33s1.61,13.57,4.82,18.33c3.21,4.76,7.68,7.14,13.39,7.14,4.6,0,8.21-1.07,10.83-3.21,2.62-2.14,4.36-4.52,5.24-7.14h19.4c-.24,2.86-1.03,5.79-2.38,8.81-1.35,3.02-3.33,6.07-5.95,9.16-2.62,3.09-6.29,5.63-11.01,7.62-4.72,1.98-10.1,2.98-16.12,2.98Z" style="fill:#fff; stroke:#fff; stroke-linecap:round; stroke-linejoin:round; stroke-width:8px;"/><path d="M163.06,140.99h-23.92v24.75h-18.09v-24.75h-23.8v-17.14h23.8v-24.63h18.09v24.63h23.92v17.14Z" style="fill:#fff; stroke:#fff; stroke-linecap:round; stroke-linejoin:round; stroke-width:8px;"/><path d="M246.96,140.99h-23.92v24.75h-18.09v-24.75h-23.8v-17.14h23.8v-24.63h18.09v24.63h23.92v17.14Z" style="fill:#fff; stroke:#fff; stroke-linecap:round; stroke-linejoin:round; stroke-width:8px;"/></svg>