<?xml version="1.0" encoding="UTF-8"?><svg id="Layer_1" xmlns="http://www.w3.org/2000/svg" viewBox="0 0 256 256"><path d="M79.33,144.92c0,8.81-2.72,15.73-8.15,20.76-5.44,5.04-13.03,7.56-22.79,7.56s-17.08-2.5-22.19-7.5c-5.12-5-7.68-11.94-7.68-20.82v-24.16h19.28v22.49c0,3.73.89,6.66,2.68,8.81,1.79,2.14,4.42,3.21,7.91,3.21s6.13-1.07,7.91-3.21c1.78-2.14,2.68-5.08,2.68-8.81v-56.17h20.35v57.83Z" style="fill:#fff; stroke:#fff; stroke-linecap:round; stroke-linejoin:round; stroke-width:8px;"/><path d="M128.59,101.84c-3.81,0-6.8.71-8.98,2.14-2.18,1.43-3.27,3.33-3.27,5.71,0,4.36,3.69,7.06,11.07,8.09l8.45,1.07c10.39,1.35,18.25,4.01,23.56,7.97,5.31,3.97,7.97,10.28,7.97,18.92s-3.04,14.88-9.1,19.87c-6.07,5-14.54,7.5-25.41,7.5-6.35,0-12.02-.81-17.02-2.44-5-1.62-8.97-3.79-11.9-6.49-2.94-2.7-5.26-5.45-6.96-8.27-1.71-2.81-2.92-5.77-3.63-8.87h21.54c.95,2.46,2.93,4.66,5.95,6.6,3.01,1.95,7.02,2.92,12.02,2.92,4.44,0,7.83-.81,10.17-2.44,2.34-1.62,3.51-3.87,3.51-6.72s-1.01-4.98-3.03-6.37c-2.02-1.39-4.98-2.36-8.87-2.92l-8.57-1.19c-9.84-1.35-17.36-4.11-22.55-8.27-5.2-4.17-7.79-10.21-7.79-18.15s3.01-13.88,9.04-18.33c6.03-4.44,13.96-6.66,23.8-6.66,6.03,0,11.36.71,16.01,2.14,4.64,1.43,8.33,3.37,11.07,5.83,2.74,2.46,4.86,4.92,6.37,7.38,1.51,2.46,2.62,5.12,3.33,7.97h-20.71c-3.02-4.68-8.37-7.02-16.06-7.02Z" style="fill:#fff; stroke:#fff; stroke-linecap:round; stroke-linejoin:round; stroke-width:8px;"/><path d="M221.89,171.57l-13.09-16.78-13.45,16.78h-21.9l24.51-30.58-24.28-31.06h24.51l12.02,15.83,12.73-15.83h22.01l-24.04,29.87,24.16,31.77h-23.21Z" style="fill:#fff; stroke:#fff; stroke-linecap:round; stroke-linejoin:round; stroke-width:8px;"/></svg>