<?xml version="1.0" encoding="UTF-8"?><svg id="Layer_1" xmlns="http://www.w3.org/2000/svg" viewBox="0 0 256 256"><path d="M62.63,149.62c0,7.25-2.24,12.95-6.71,17.1-4.48,4.15-10.73,6.22-18.77,6.22s-14.06-2.06-18.28-6.17-6.32-9.83-6.32-17.15v-19.89h15.88v18.52c0,3.07.73,5.49,2.2,7.25,1.47,1.76,3.64,2.65,6.52,2.65s5.05-.88,6.52-2.65c1.47-1.76,2.21-4.18,2.21-7.25v-46.26h16.76v47.63Z" style="fill:#fff; stroke:#fff; stroke-linecap:round; stroke-linejoin:round; stroke-width:6px;"/><path d="M109.97,171.57v-6.66c-.65,1.63-2.14,3.33-4.46,5.1-2.32,1.76-5.44,2.65-9.36,2.65-6.21,0-11.25-2.37-15.14-7.1-3.89-4.74-5.83-11.19-5.83-19.36s1.96-14.52,5.88-19.26c3.92-4.74,8.98-7.1,15.19-7.1,2.09,0,4,.29,5.73.88,1.73.59,3.12,1.34,4.17,2.25,1.04.92,1.85,1.7,2.4,2.35.55.65.96,1.27,1.23,1.86v-6.37h15.78v50.76h-15.58ZM107.52,155.65c1.63-2.32,2.45-5.47,2.45-9.46s-.82-7.12-2.45-9.41c-1.63-2.29-3.92-3.43-6.86-3.43s-5.34,1.14-7.01,3.43c-1.67,2.29-2.5,5.42-2.5,9.41s.85,7.14,2.55,9.46c1.7,2.32,4.02,3.48,6.96,3.48s5.23-1.16,6.86-3.48Z" style="fill:#fff; stroke:#fff; stroke-linecap:round; stroke-linejoin:round; stroke-width:6px;"/><path d="M188.07,120.81l-18.72,51.06h-16.46l-19.99-51.06h17.84l10.58,30.28,10.58-30.28h16.17Z" style="fill:#fff; stroke:#fff; stroke-linecap:round; stroke-linejoin:round; stroke-width:6px;"/><path d="M227.76,171.57v-6.66c-.65,1.63-2.14,3.33-4.46,5.1-2.32,1.76-5.44,2.65-9.36,2.65-6.21,0-11.25-2.37-15.14-7.1-3.89-4.74-5.83-11.19-5.83-19.36s1.96-14.52,5.88-19.26c3.92-4.74,8.98-7.1,15.19-7.1,2.09,0,4,.29,5.73.88,1.73.59,3.12,1.34,4.17,2.25,1.04.92,1.85,1.7,2.4,2.35.55.65.96,1.27,1.22,1.86v-6.37h15.78v50.76h-15.58ZM225.31,155.65c1.63-2.32,2.45-5.47,2.45-9.46s-.82-7.12-2.45-9.41c-1.63-2.29-3.92-3.43-6.86-3.43s-5.34,1.14-7.01,3.43c-1.67,2.29-2.5,5.42-2.5,9.41s.85,7.14,2.55,9.46c1.7,2.32,4.02,3.48,6.96,3.48s5.23-1.16,6.86-3.48Z" style="fill:#fff; stroke:#fff; stroke-linecap:round; stroke-linejoin:round; stroke-width:6px;"/></svg>