<?xml version="1.0" encoding="UTF-8"?><svg id="Layer_1" xmlns="http://www.w3.org/2000/svg" viewBox="0 0 256 256"><path d="M41,103.59c-3.71,0-6.63.7-8.76,2.09-2.13,1.39-3.19,3.25-3.19,5.57,0,4.25,3.6,6.88,10.79,7.89l8.24,1.04c10.13,1.32,17.79,3.91,22.97,7.77,5.18,3.87,7.77,10.02,7.77,18.44s-2.96,14.5-8.87,19.37-14.17,7.31-24.77,7.31c-6.19,0-11.72-.79-16.59-2.38-4.87-1.58-8.74-3.69-11.6-6.32-2.86-2.63-5.12-5.32-6.79-8.06-1.66-2.74-2.84-5.63-3.54-8.64h21c.93,2.4,2.86,4.54,5.8,6.44,2.94,1.9,6.84,2.84,11.72,2.84,4.33,0,7.64-.79,9.92-2.38,2.28-1.58,3.42-3.77,3.42-6.55s-.99-4.85-2.96-6.21c-1.97-1.35-4.85-2.3-8.64-2.84l-8.35-1.16c-9.59-1.31-16.92-4-21.98-8.06-5.07-4.06-7.6-9.96-7.6-17.69s2.94-13.53,8.82-17.86c5.88-4.33,13.61-6.5,23.2-6.5,5.88,0,11.08.7,15.6,2.09,4.52,1.39,8.12,3.29,10.79,5.68,2.67,2.4,4.74,4.8,6.21,7.19,1.47,2.4,2.55,4.99,3.25,7.77h-20.18c-2.94-4.56-8.16-6.84-15.66-6.84Z" style="fill:#fff; stroke:#fff; stroke-linecap:round; stroke-linejoin:round; stroke-width:8px;"/><path d="M169.53,130.39c0,8.43-1.68,15.78-5.05,22.04s-8.02,11.1-13.98,14.5l17.86,22.27h-23.66l-13.92-17.05h-.46c-11.52,0-20.96-3.79-28.3-11.37-7.35-7.58-11.02-17.71-11.02-30.39s3.71-23.24,11.14-30.97c7.42-7.73,16.82-11.6,28.19-11.6s20.74,3.85,28.13,11.54c7.38,7.7,11.08,18.04,11.08,31.03ZM116.17,148.37c3.4,4.64,8.12,6.96,14.15,6.96s10.75-2.32,14.15-6.96c3.4-4.64,5.1-10.63,5.1-17.98s-1.7-13.34-5.1-17.98c-3.4-4.64-8.12-6.96-14.15-6.96s-10.75,2.32-14.15,6.96c-3.4,4.64-5.1,10.63-5.1,17.98s1.7,13.34,5.1,17.98Z" style="fill:#fff; stroke:#fff; stroke-linecap:round; stroke-linejoin:round; stroke-width:8px;"/><path d="M249.45,153.71v17.86h-63.8v-82.36h19.72v64.5h44.08Z" style="fill:#fff; stroke:#fff; stroke-linecap:round; stroke-linejoin:round; stroke-width:8px;"/></svg>