<?xml version="1.0" encoding="UTF-8"?>
<svg id="Layer_1" xmlns="http://www.w3.org/2000/svg" viewBox="0 -10 256 256">
    <path d="M17.17,76.97c0-23.28,0-29.39,0-52.67,0-1.12.11-7.07,4.66-11.88,2.88-3.04,6.86-4.92,11.25-4.92h194.54c8.79,0,15.91,7.52,15.91,16.79v191.4c0,9.28-7.12,16.79-15.91,16.79H17.17" style="fill:none; stroke:#131313; stroke-linecap:round; stroke-linejoin:bevel; stroke-width:15px;"/>
    <path d="M42.34,198.49c-9.08,0-16.4-3.43-21.95-10.29-5.55-6.86-8.33-15.42-8.33-25.68s2.78-18.82,8.33-25.68c5.55-6.86,12.87-10.29,21.95-10.29,4.51,0,8.56.72,12.15,2.16,3.59,1.44,6.43,3.28,8.53,5.54,2.09,2.25,3.74,4.54,4.95,6.86,1.21,2.32,1.98,4.62,2.3,6.91h-9.41c-.65-1.76-1.6-3.49-2.84-5.19-1.24-1.7-3.27-3.35-6.08-4.95-2.81-1.6-6.01-2.4-9.6-2.4-6.4,0-11.38,2.6-14.94,7.79-3.56,5.19-5.34,11.61-5.34,19.26s1.78,14.06,5.34,19.26c3.56,5.19,8.54,7.79,14.94,7.79,2.81,0,5.36-.44,7.64-1.32,2.29-.88,4.17-2.04,5.64-3.48,1.47-1.44,2.63-2.81,3.48-4.12.85-1.31,1.5-2.58,1.96-3.82h9.21c-.33,2.22-1.08,4.51-2.25,6.86s-2.83,4.67-4.95,6.96c-2.12,2.29-5,4.17-8.62,5.64-3.63,1.47-7.66,2.2-12.1,2.2Z" style="fill:#fff; stroke:#131313; stroke-linecap:round; stroke-linejoin:round; stroke-width:10px;"/>
    <path d="M116.23,135.28c-4.84,0-8.59.93-11.27,2.79-2.68,1.86-4.02,4.4-4.02,7.6,0,5.55,4.41,8.98,13.23,10.29l9.21,1.37c3.2.52,6.01,1.19,8.43,2.01,2.42.82,4.79,1.96,7.11,3.43,2.32,1.47,4.08,3.45,5.29,5.93,1.21,2.48,1.81,5.42,1.81,8.82,0,6.08-2.32,11.11-6.96,15.09-4.64,3.99-10.91,5.98-18.81,5.98-9.08,0-16.17-2.02-21.27-6.08-5.1-4.05-8.43-8.92-10-14.6h10.09c1.24,3.14,3.56,5.91,6.96,8.33,3.4,2.42,8.13,3.63,14.21,3.63,4.9,0,8.83-1.08,11.81-3.23,2.97-2.16,4.46-5.03,4.46-8.62s-1.21-6.22-3.63-7.89c-2.42-1.67-5.85-2.86-10.29-3.58l-9.21-1.37c-6.93-1.04-12.32-3.05-16.17-6.03-3.86-2.97-5.78-7.46-5.78-13.47s2.3-10.45,6.91-13.92c4.61-3.46,10.57-5.19,17.88-5.19,8.23,0,14.68,1.76,19.35,5.29,4.67,3.53,7.63,7.78,8.87,12.74h-9.8c-3.4-6.21-9.54-9.31-18.42-9.31Z" style="fill:#fff; stroke:#131313; stroke-linecap:round; stroke-linejoin:round; stroke-width:10px;"/>
</svg>