<?xml version="1.0" encoding="UTF-8"?><svg id="Layer_1" xmlns="http://www.w3.org/2000/svg" viewBox="0 0 256 256"><path d="M51.35,172.9c-10.88,0-19.67-3.74-26.36-11.21-6.7-7.47-10.05-17.32-10.05-29.53s3.35-21.96,10.05-29.47c6.7-7.51,15.48-11.27,26.36-11.27,5.4,0,10.27.87,14.6,2.61,4.33,1.74,7.75,4,10.27,6.77,2.52,2.78,4.46,5.62,5.83,8.55,1.37,2.92,2.16,5.83,2.39,8.71h-18.2c-.82-2.37-2.44-4.57-4.88-6.6-2.44-2.03-5.77-3.05-9.99-3.05-5.33,0-9.49,2.22-12.49,6.66-3,4.44-4.5,10.14-4.5,17.09s1.5,12.65,4.5,17.09c3,4.44,7.16,6.66,12.49,6.66,4.29,0,7.66-1,10.1-3s4.07-4.22,4.88-6.66h18.09c-.22,2.66-.96,5.4-2.22,8.21-1.26,2.81-3.11,5.66-5.55,8.55s-5.87,5.25-10.27,7.1c-4.4,1.85-9.42,2.77-15.04,2.77Z" style="fill:#fff; stroke:#fff; stroke-linecap:round; stroke-linejoin:round; stroke-width:6px;"/><path d="M126.28,106.52c-3.55,0-6.35.67-8.38,2-2.04,1.33-3.05,3.11-3.05,5.33,0,4.07,3.44,6.59,10.32,7.55l7.88,1c9.69,1.26,17.02,3.74,21.98,7.44,4.96,3.7,7.44,9.58,7.44,17.65s-2.83,13.88-8.49,18.54-13.56,6.99-23.7,6.99c-5.92,0-11.21-.76-15.87-2.28-4.66-1.52-8.36-3.53-11.1-6.05-2.74-2.51-4.9-5.09-6.49-7.71-1.59-2.62-2.72-5.38-3.39-8.27h20.09c.89,2.29,2.74,4.35,5.55,6.16,2.81,1.81,6.55,2.72,11.21,2.72,4.14,0,7.31-.76,9.49-2.28,2.18-1.52,3.27-3.61,3.27-6.27s-.94-4.64-2.83-5.94c-1.89-1.29-4.64-2.2-8.27-2.72l-7.99-1.11c-9.18-1.26-16.19-3.83-21.03-7.71-4.85-3.88-7.27-9.53-7.27-16.93s2.81-12.95,8.44-17.09c5.62-4.14,13.02-6.22,22.2-6.22,5.62,0,10.6.67,14.93,2s7.77,3.15,10.32,5.44c2.55,2.29,4.53,4.59,5.94,6.88,1.41,2.29,2.44,4.77,3.11,7.44h-19.31c-2.81-4.37-7.81-6.55-14.98-6.55Z" style="fill:#fff; stroke:#fff; stroke-linecap:round; stroke-linejoin:round; stroke-width:6px;"/><path d="M204.98,106.52c-3.55,0-6.35.67-8.38,2-2.04,1.33-3.05,3.11-3.05,5.33,0,4.07,3.44,6.59,10.32,7.55l7.88,1c9.69,1.26,17.02,3.74,21.98,7.44,4.96,3.7,7.44,9.58,7.44,17.65s-2.83,13.88-8.49,18.54c-5.66,4.66-13.56,6.99-23.7,6.99-5.92,0-11.21-.76-15.87-2.28s-8.36-3.53-11.1-6.05c-2.74-2.51-4.9-5.09-6.49-7.71-1.59-2.62-2.72-5.38-3.39-8.27h20.09c.89,2.29,2.74,4.35,5.55,6.16,2.81,1.81,6.55,2.72,11.21,2.72,4.14,0,7.31-.76,9.49-2.28,2.18-1.52,3.28-3.61,3.28-6.27s-.94-4.64-2.83-5.94c-1.89-1.29-4.65-2.2-8.27-2.72l-7.99-1.11c-9.18-1.26-16.19-3.83-21.03-7.71-4.85-3.88-7.27-9.53-7.27-16.93s2.81-12.95,8.44-17.09c5.62-4.14,13.02-6.22,22.2-6.22,5.62,0,10.6.67,14.93,2s7.77,3.15,10.32,5.44c2.55,2.29,4.53,4.59,5.94,6.88,1.4,2.29,2.44,4.77,3.11,7.44h-19.31c-2.81-4.37-7.81-6.55-14.98-6.55Z" style="fill:#fff; stroke:#fff; stroke-linecap:round; stroke-linejoin:round; stroke-width:6px;"/></svg>