<?xml version="1.0" encoding="UTF-8"?>
<svg version="1.1" xmlns="http://www.w3.org/2000/svg" width="2134" height="2134">
    <path d="M0 0 C504.9 0 1009.8 0 1530 0 C1571.25 41.25 1612.5 82.5 1655 125 C1655 628.58 1655 1132.16 1655 1651 C1613.42 1692.58 1571.84 1734.16 1529 1777 C1022.12 1777 515.24 1777 -7 1777 C-48.58 1735.42 -90.16 1693.84 -133 1651 C-133 1150.06 -133 649.12 -133 133 C-89.11 89.11 -45.22 45.22 0 0 Z M6 58 C-1.85124667 61.52803401 -8.90356832 65.87856096 -15.43359375 71.49609375 C-20.84444851 76.77517731 -25.10601545 82.6057476 -28.78515625 89.19921875 C-32.38667279 96.53498585 -34.91824081 103.88680608 -36 112 C-36.64155742 119.88962876 -36.48616802 127.77459358 -35 135.5625 C-32.8539991 143.51065148 -29.46262169 151.07965113 -25 158 C-21.7191461 162.38689479 -17.93745803 166.20615746 -14 170 C-13.44054687 170.59039062 -12.88109375 171.18078125 -12.3046875 171.7890625 C-8.0020846 176.00155853 -2.53375541 178.61468735 2.82958984 181.23339844 C8.77303297 184.0138133 14.43761369 186.21343901 21 187 C29.55941362 187.61262515 38.17061887 187.72073854 46.5625 185.75 C48.38528041 185.1996314 50.1991005 184.61821923 52 184 C52.82242188 183.74476563 53.64484375 183.48953125 54.4921875 183.2265625 C62.17779023 180.5501066 68.59351163 175.89957455 75 171 C79.82042808 167.15459234 83.23603388 162.49688932 86.625 157.375 C90.71429979 150.92276519 93.89833444 144.3778134 96 137 C97.85666128 128.79896852 98.35398926 120.87153846 97.53125 112.50390625 C96.235562 103.95808173 93.78559354 96.1173273 89.9375 88.375 C85.91845159 81.36086455 80.99902044 75.38245977 75 70 C68.34132379 64.43697682 61.09650022 60.21809763 53.046875 56.97265625 C43.73843161 54.00111471 34.9616631 53.49990057 25.23828125 53.69140625 C18.3692545 53.98898587 12.38878674 55.36335785 6 58 Z M1446.51953125 58.4765625 C1438.88832913 61.96578544 1432.16174151 66.2691495 1426 72 C1420.07308575 77.66349584 1415.56925357 84.1263551 1411.765625 91.359375 C1408.93747948 97.04568882 1406.83326461 102.67715968 1406 109 C1405.17449883 118.1422967 1404.89480212 127.6034907 1406.8828125 136.61328125 C1408.83696874 143.92938897 1411.96823169 150.77704226 1415.9921875 157.1875 C1420.83576026 163.97227118 1426.24091243 169.96219381 1433 174.875 C1440.45482237 179.75155047 1448.35642994 183.73182913 1457 186 C1465.17090356 187.68605946 1473.70378484 187.59892015 1482 187 C1488.48716296 186.13702198 1494.48110014 184.09616161 1500.46484375 181.4921875 C1508.02813102 177.69730591 1514.06593797 172.99534322 1520 167 C1520.69738281 166.33613281 1521.39476562 165.67226563 1522.11328125 164.98828125 C1527.02100599 159.98526088 1530.2971047 154.40308167 1533.33447266 148.14404297 C1536.20150176 141.91017422 1538.18949281 135.8460316 1539 129 C1539.74976034 120.44290617 1539.43542167 112.12224321 1537.4375 103.75 C1535.43207764 96.22093492 1532.25342633 89.54048692 1528 83 C1523.70633147 76.7989518 1519.02382951 71.75649446 1513.0625 67.125 C1505.96258051 62.10223224 1498.92280619 58.4811021 1490.6875 55.6875 C1481.99886219 53.35153836 1473.28709534 53.35085892 1464.34228516 53.82421875 C1457.86553033 54.31027915 1452.46882403 55.95262011 1446.51953125 58.4765625 Z M180.59765625 282.32421875 C157.46746572 291.15932573 136.0673455 302.77692485 116.5625 318.125 C115.03300338 319.40639646 113.51285336 320.69899596 112 322 C110.90832678 322.90978456 109.81580989 323.81855729 108.72265625 324.7265625 C96.98794999 334.54306465 86.42536363 344.91748598 77 357 C76.21109375 357.98355469 75.4221875 358.96710938 74.609375 359.98046875 C58.85950934 379.78003265 46.21577094 402.05322867 37.73828125 425.90625 C37.15463583 427.60272127 36.57511933 429.30061938 36 431 C35.72462402 431.804375 35.44924805 432.60875 35.16552734 433.4375 C31.80886947 443.40833182 29.31214765 453.49868735 27.25 463.8125 C27.05124268 464.7821167 26.85248535 465.7517334 26.64770508 466.75073242 C22.21601544 490.23887745 22.71309762 514.13338033 22.75546761 537.92602561 C22.76240696 543.08914054 22.75758107 548.2522476 22.75431263 553.41536433 C22.75018572 562.4449244 22.75341735 571.47445799 22.76158905 580.50401497 C22.77370595 593.93043553 22.77425632 607.35683954 22.77250507 620.78326457 C22.7698828 643.37341337 22.77652443 665.96354921 22.78853989 688.55369377 C22.80040288 710.91082757 22.80809368 733.26795653 22.81024551 755.62509346 C22.81031434 756.32057291 22.81038316 757.01605237 22.81045407 757.73260695 C22.81108051 764.08515926 22.81165589 770.43771157 22.81217002 776.79026388 C22.81344847 792.57882968 22.8153669 808.36739536 22.81772041 824.15596104 C22.81782705 824.8747719 22.81793368 825.59358277 22.81804355 826.33417578 C22.82328092 861.26192955 22.8358937 896.18968014 22.84912109 931.11743164 C22.8537046 943.23132322 22.85825541 955.34521481 22.8626709 967.45910645 C22.8629448 968.21045723 22.8632187 968.96180801 22.86350089 969.735927 C22.87619966 1004.69386694 22.88364365 1039.65180744 22.88974049 1074.60974908 C22.89013661 1076.88050469 22.890535 1079.1512603 22.89093385 1081.42201591 C22.89357351 1096.47100156 22.89612279 1111.51998723 22.89861157 1126.56897291 C22.90356399 1156.5102324 22.90904733 1186.45149177 22.91489566 1216.3927511 C22.91517414 1217.81848669 22.91545225 1219.24422228 22.91572999 1220.66995787 C22.92428338 1264.56723974 22.93523243 1308.46452051 22.94869995 1352.36180115 C22.94907507 1353.58755603 22.94945018 1354.81331091 22.94983667 1356.07620989 C22.96506498 1405.71747375 22.98285435 1455.35873677 23 1505 C85.37 1505 147.74 1505 212 1505 C212.01981934 1476.74004395 212.03963867 1448.48008789 212.06005859 1419.36376953 C212.07358401 1400.49374375 212.08714289 1381.62371804 212.10116577 1362.75369263 C212.10205564 1361.55492349 212.1029455 1360.35615436 212.10386233 1359.12105889 C212.13385392 1318.7660777 212.1665678 1278.41109919 212.20132446 1238.05612183 C212.20245809 1236.73909251 212.20359171 1235.4220632 212.20475969 1234.06512391 C212.22880538 1206.13937073 212.25325943 1178.21361793 212.27818505 1150.28786552 C212.29070611 1136.25925058 212.30314871 1122.23063556 212.31551713 1108.20202048 C212.31738328 1106.08589387 212.31925167 1103.96976725 212.32112016 1101.85364064 C212.34986291 1069.27909722 212.37692612 1036.70455348 212.39910889 1004.13000488 C212.39958565 1003.42994488 212.40006241 1002.72988488 212.40055362 1002.00861094 C212.40822992 990.72200583 212.41576489 979.43540062 212.42328111 968.14879539 C212.44493969 935.62875995 212.46764809 903.10872675 212.49726295 870.58869743 C212.49787182 869.91954717 212.49848068 869.2503969 212.499108 868.56096935 C212.51189355 854.52913905 212.52512706 840.49730922 212.53890612 826.46547986 C212.54535648 819.89370289 212.5517326 813.32192585 212.55806351 806.75014877 C212.55931181 805.45673354 212.56056012 804.1633183 212.56184625 802.83070866 C212.58174655 782.01344193 212.5948012 761.19617627 212.60529328 740.37890291 C212.61598849 719.44862586 212.63390189 698.51836483 212.65916704 677.58810021 C212.67395706 665.15432761 212.68322888 652.72057953 212.68456683 640.28679805 C212.68600702 631.9758098 212.6946755 623.66484915 212.70915592 615.35387346 C212.7171958 610.6217709 212.72215509 605.88972249 212.71827881 601.15761341 C212.71480649 596.84269797 212.72065612 592.52789415 212.73358065 588.21299758 C212.73662908 586.67121566 212.73644007 585.12942255 212.73239125 583.58764293 C212.69370456 567.38949332 213.88773893 551.46458972 219 536 C223.68941669 522.5401067 230.19121737 511.10674489 238.875 499.8125 C247.3764946 489.61070648 256.51734508 481.28880656 267.79052734 474.30664062 C279.84637184 467.17704066 292.24962481 462.54082918 305.8762207 459.4296875 C310.76488939 458.44060176 315.39132388 457.87456398 320.3863008 457.87119883 C321.6608799 457.86792664 322.93545899 457.86465445 324.2486617 457.86128309 C325.65848976 457.86269305 327.06831773 457.86419505 328.4781456 457.86577892 C329.98558489 457.86382526 331.49302366 457.86143613 333.00046164 457.85865095 C337.15807705 457.85224961 341.31567315 457.85208944 345.47329256 457.85292836 C349.99091294 457.85275889 354.50852639 457.84685303 359.02614331 457.8416875 C367.99331628 457.83235748 376.96048432 457.82843877 385.92766154 457.82616853 C396.6659963 457.82320748 407.4043245 457.81451061 418.14265582 457.80575425 C444.10020763 457.78490423 470.05776057 457.77443896 496.0153188 457.76562465 C508.29465401 457.76141871 520.57398872 457.75619663 532.85332352 457.75094012 C574.884508 457.73304894 616.91569262 457.71805303 658.94688034 457.71061993 C661.58593276 457.71014517 664.22498517 457.70966928 666.86403759 457.70919226 C668.82714425 457.7088377 668.82714425 457.7088377 670.82990963 457.70847597 C677.46066241 457.70727477 684.09141519 457.70605932 690.72216797 457.70483398 C692.03806309 457.70459383 693.3539582 457.70435368 694.70972893 457.70410626 C737.37092743 457.69621393 780.03209219 457.67278396 822.69327913 457.64027804 C867.79363032 457.60597632 912.89396524 457.58626844 957.99432969 457.58297569 C962.94592938 457.58255815 967.89752905 457.58207858 972.84912872 457.58155251 C974.06835798 457.58142931 975.28758724 457.58130612 976.54376284 457.5811792 C996.16123153 457.57884754 1015.77866792 457.56318938 1035.3961251 457.54271066 C1055.11808685 457.52244961 1074.84000981 457.51697669 1094.56198004 457.52648129 C1106.27596908 457.53169523 1117.98982896 457.52582376 1129.7037994 457.50394662 C1137.53477401 457.49042786 1145.36565984 457.49152509 1153.19663537 457.50434858 C1157.65453486 457.51123798 1162.11218764 457.51193968 1166.57006499 457.49478849 C1200.63297827 457.37190665 1200.63297827 457.37190665 1215 462 C1215.69721093 462.22391685 1216.39442186 462.44783369 1217.11276039 462.6785359 C1228.8567578 466.49537542 1239.83962792 471.89643278 1249.91015625 479.07421875 C1252.33862103 480.98471114 1254.67494356 482.96557561 1257 485 C1257.7321875 485.58910156 1258.464375 486.17820312 1259.21875 486.78515625 C1267.24148448 493.43781107 1273.7413921 501.71519092 1279.265625 510.5234375 C1286.27920812 522.19090883 1291.63052022 534.59898656 1294.57868195 547.90707588 C1297.42254797 562.0341605 1297.29786367 576.47589074 1297.265625 590.81640625 C1297.26697704 592.96955916 1297.26892202 595.12271177 1297.27142334 597.27586365 C1297.27434866 601.75775092 1297.27016094 606.23955773 1297.26074219 610.72143555 C1297.24934239 616.41848684 1297.25592723 622.11534971 1297.26788712 627.81239414 C1297.27517039 632.24893064 1297.27278846 636.68542367 1297.26763153 641.12196159 C1297.26631321 643.22076376 1297.26787766 645.3195701 1297.27259064 647.41836739 C1297.30360555 665.10149731 1296.47192913 682.03321973 1291 699 C1286.72776606 710.94148722 1280.87838422 722.19986194 1273.03759766 732.1862793 C1265.54576574 741.41225405 1257.37295247 749.35146631 1247.41015625 755.90625 C1236.82669378 762.48905926 1226.14332847 767.89086405 1214 771 C1213.13079939 771.24771823 1212.26159879 771.49543647 1211.36605877 771.75066131 C1198.13872724 774.98707726 1184.62422232 774.42589279 1171.09576274 774.38933506 C1167.26244498 774.382336 1163.42916684 774.39288003 1159.59585708 774.40113491 C1152.88823935 774.41320953 1146.18069102 774.41430324 1139.47306633 774.40807533 C1129.49834654 774.39887774 1119.52369221 774.40695088 1109.54897758 774.41857243 C1092.76309672 774.43768436 1075.97723761 774.44321887 1059.19134712 774.44125557 C1042.56606618 774.43941405 1025.94080975 774.44464179 1009.31553459 774.45893669 C1007.76300362 774.46027151 1007.76300362 774.46027151 1006.17910839 774.46163329 C1000.92212149 774.46620339 995.66513474 774.4709205 990.40814804 774.47570812 C979.71900604 774.48540639 969.02986325 774.49413829 958.34072018 774.50257015 C957.27075033 774.50341441 956.20078049 774.50425866 955.09838732 774.5051285 C929.64559111 774.52496639 904.19279231 774.53496724 878.73999023 774.54370117 C877.6266885 774.54408584 876.51338676 774.5444705 875.3663486 774.54486683 C866.34629038 774.54798277 857.32623215 774.55107391 848.30617391 774.55412453 C822.33424193 774.5629239 796.3623113 774.57414551 770.39038086 774.58666992 C768.7215619 774.58746995 768.7215619 774.58746995 767.01902943 774.58828614 C741.61137489 774.60050556 716.20372309 774.614805 690.79607296 774.63422298 C689.72779199 774.63503784 688.65951102 774.6358527 687.5588579 774.63669225 C676.8928785 774.64485974 666.22689935 774.65329693 655.56092051 774.66218215 C632.66089195 774.68116175 609.76088087 774.69415859 586.86084404 774.69517689 C570.16793927 774.69597049 553.47504922 774.70337062 536.78215045 774.71770663 C526.86960065 774.72596965 516.95708597 774.72858431 507.04453403 774.72315645 C500.41721164 774.72006462 493.78991887 774.7242082 487.16260326 774.73412842 C483.39074943 774.7395611 479.6189667 774.74190304 475.84711308 774.73531515 C450.32279233 774.39144802 450.32279233 774.39144802 425.375 779.1875 C424.67681152 779.40108154 423.97862305 779.61466309 423.25927734 779.8347168 C413.84926289 782.84921268 405.26372912 787.22477205 397.1875 792.9375 C395.44400093 794.27316303 393.71399212 795.62667712 392 797 C391.23171875 797.60328125 390.4634375 798.2065625 389.671875 798.828125 C382.01106839 805.20320183 376.03771649 813.08597389 370.765625 821.4921875 C364.43164709 831.98302118 360.23884842 842.87424518 357.578125 854.83203125 C355.57239354 865.82289756 355.007954 876.95354226 356.68359375 888.0234375 C358.71992924 899.71388497 361.91258866 910.57533752 367.66015625 921.015625 C371.58092119 927.41031224 376.10034719 933.32720806 381 939 C381.59554688 939.69222656 382.19109375 940.38445313 382.8046875 941.09765625 C389.99557262 948.82280392 398.80704399 954.74714223 407.27099609 960.9765625 C411.73904472 964.2894259 416.1480804 967.67871291 420.5625 971.0625 C427.24380136 976.17107639 433.96691008 981.21490015 440.75 986.1875 C448.82312369 992.10668271 456.790229 998.15254066 464.7265625 1004.25341797 C476.34952779 1013.18283095 488.01103197 1022.04942515 499.83544922 1030.71069336 C506.67800952 1035.73430028 513.4234709 1040.87984137 520.1640625 1046.0390625 C525.8990291 1050.42064465 531.67765193 1054.7353507 537.5 1059 C545.19448249 1064.63719029 552.79749156 1070.38641797 560.375 1076.1796875 C565.56390483 1080.14631697 570.7676907 1084.09081877 576 1088 C582.1357291 1092.58414738 588.22796626 1097.22316171 594.3125 1101.875 C601.7625489 1107.56765675 609.27134428 1113.17020784 616.83520508 1118.71044922 C623.67776708 1123.73424616 630.42337957 1128.87977146 637.1640625 1134.0390625 C642.89903206 1138.42064691 648.67774856 1142.73521603 654.5 1147 C665.67483749 1155.19052871 676.66516958 1163.6191225 687.66601562 1172.04101562 C697.65886744 1179.68778338 707.68532096 1187.27576802 717.83642578 1194.71142578 C724.67867921 1199.73476241 731.42379463 1204.88008914 738.1640625 1210.0390625 C743.8990291 1214.42064465 749.67765193 1218.7353507 755.5 1223 C763.19448249 1228.63719029 770.79749156 1234.38641797 778.375 1240.1796875 C783.56390483 1244.14631697 788.7676907 1248.09081877 794 1252 C800.1357291 1256.58414738 806.22796626 1261.22316171 812.3125 1265.875 C819.7625489 1271.56765675 827.27134428 1277.17020784 834.83520508 1282.71044922 C841.67776708 1287.73424616 848.42337957 1292.87977146 855.1640625 1298.0390625 C860.89903206 1302.42064691 866.67774856 1306.73521603 872.5 1311 C883.67483749 1319.19052871 894.66516958 1327.6191225 905.66601562 1336.04101562 C915.65886744 1343.68778338 925.68532096 1351.27576802 935.83642578 1358.71142578 C942.67867921 1363.73476241 949.42379463 1368.88008914 956.1640625 1374.0390625 C961.8990291 1378.42064465 967.67765193 1382.7353507 973.5 1387 C981.19448249 1392.63719029 988.79749156 1398.38641797 996.375 1404.1796875 C1001.56390483 1408.14631697 1006.7676907 1412.09081877 1012 1416 C1018.1357291 1420.58414738 1024.22796626 1425.22316171 1030.3125 1429.875 C1037.7625489 1435.56765675 1045.27134428 1441.17020784 1052.83520508 1446.71044922 C1059.67776708 1451.73424616 1066.42337957 1456.87977146 1073.1640625 1462.0390625 C1078.89903035 1466.42064561 1084.67768811 1470.73529969 1090.5 1475 C1103.83900745 1484.77415137 1116.94722819 1494.84784415 1130 1505 C1230.32 1505 1330.64 1505 1434 1505 C1429.83512735 1500.80537205 1429.83512735 1500.80537205 1425.390625 1497.125 C1424.72740234 1496.62162109 1424.06417969 1496.11824219 1423.38085938 1495.59960938 C1422.67767578 1495.07173828 1421.97449219 1494.54386719 1421.25 1494 C1419.72388236 1492.84385027 1418.19784287 1491.68759739 1416.671875 1490.53125 C1415.89521484 1489.94472656 1415.11855469 1489.35820313 1414.31835938 1488.75390625 C1410.70100413 1486.01727187 1407.10097817 1483.25812474 1403.5 1480.5 C1402.08342586 1479.41654569 1400.66675894 1478.33321266 1399.25 1477.25 C1390.74999999 1470.74999999 1390.74999999 1470.74999999 1388.62597656 1469.12573242 C1387.20607316 1468.03993353 1385.78615122 1466.95415888 1384.36621094 1465.8684082 C1380.87391567 1463.19799415 1377.38191954 1460.52719105 1373.890625 1457.85546875 C1366.10046008 1451.89481226 1358.30351171 1445.94317489 1350.5 1440 C1342.0123386 1433.53577492 1333.53327708 1427.06043916 1325.06054688 1420.57666016 C1321.54099336 1417.8836179 1318.02044912 1415.19187132 1314.5 1412.5 C1310.29640553 1409.28576937 1306.09297414 1406.07132745 1301.890625 1402.85546875 C1294.10046008 1396.89481226 1286.30351171 1390.94317489 1278.5 1385 C1270.0123386 1378.53577492 1261.53327708 1372.06043916 1253.06054688 1365.57666016 C1249.54099336 1362.8836179 1246.02044912 1360.19187132 1242.5 1357.5 C1238.29640553 1354.28576937 1234.09297414 1351.07132745 1229.890625 1347.85546875 C1222.10046008 1341.89481226 1214.30351171 1335.94317489 1206.5 1330 C1198.0123386 1323.53577492 1189.53327708 1317.06043916 1181.06054688 1310.57666016 C1177.54099335 1307.8836179 1174.02043774 1305.1918862 1170.5 1302.5 C1169.08332872 1301.41667271 1167.66666204 1300.33333938 1166.25 1299.25 C1165.54875 1298.71375 1164.8475 1298.1775 1164.125 1297.625 C1157.74999996 1292.74999997 1157.74999996 1292.74999997 1155.62597656 1291.12573242 C1154.20607316 1290.03993353 1152.78615122 1288.95415888 1151.36621094 1287.8684082 C1147.87391567 1285.19799415 1144.38191954 1282.52719105 1140.890625 1279.85546875 C1133.10046008 1273.89481226 1125.30351171 1267.94317489 1117.5 1262 C1109.0123386 1255.53577492 1100.53327708 1249.06043916 1092.06054688 1242.57666016 C1088.54099336 1239.8836179 1085.02044912 1237.19187132 1081.5 1234.5 C1077.29640553 1231.28576937 1073.09297414 1228.07132745 1068.890625 1224.85546875 C1061.10046008 1218.89481226 1053.30351171 1212.94317489 1045.5 1207 C1037.0123386 1200.53577492 1028.53327708 1194.06043916 1020.06054688 1187.57666016 C1016.54099336 1184.8836179 1013.02044912 1182.19187132 1009.5 1179.5 C1005.29640553 1176.28576937 1001.09297414 1173.07132745 996.890625 1169.85546875 C989.10046008 1163.89481226 981.30351171 1157.94317489 973.5 1152 C965.0123386 1145.53577492 956.53327708 1139.06043916 948.06054688 1132.57666016 C944.54099335 1129.8836179 941.02043774 1127.1918862 937.5 1124.5 C936.08332872 1123.41667271 934.66666204 1122.33333938 933.25 1121.25 C932.54875 1120.71375 931.8475 1120.1775 931.125 1119.625 C924.75000002 1114.75000001 924.75000002 1114.75000001 922.62597656 1113.12573242 C921.20607316 1112.03993353 919.78615122 1110.95415888 918.36621094 1109.8684082 C914.87391567 1107.19799415 911.38191954 1104.52719105 907.890625 1101.85546875 C900.10046008 1095.89481226 892.30351171 1089.94317489 884.5 1084 C876.0123386 1077.53577492 867.53327708 1071.06043916 859.06054688 1064.57666016 C855.54099336 1061.8836179 852.02044912 1059.19187132 848.5 1056.5 C844.29640553 1053.28576937 840.09297414 1050.07132745 835.890625 1046.85546875 C828.10046008 1040.89481226 820.30351171 1034.94317489 812.5 1029 C804.0123386 1022.53577492 795.53327708 1016.06043916 787.06054688 1009.57666016 C784.25110825 1007.42697359 781.44101291 1005.27814642 778.63085938 1003.12939453 C777.22062941 1002.05104041 775.81047206 1000.97259131 774.40039062 999.89404297 C770.71095756 997.07215765 767.02036805 994.25180167 763.328125 991.43359375 C762.17860352 990.55574219 762.17860352 990.55574219 761.00585938 989.66015625 C759.54397372 988.5438072 758.08175492 987.42789422 756.61914062 986.3125 C753.04519344 983.58254617 749.49822255 980.82705194 746 978 C745.34 978 744.68 978 744 978 C744 977.34 744 976.68 744 976 C745.06617902 976.00113916 746.13235804 976.00227832 747.23084551 976.003452 C794.26041166 976.05350231 841.28997952 976.09977951 888.31956482 976.12702942 C889.03253618 976.12744359 889.74550754 976.12785776 890.48008409 976.12828448 C905.97808596 976.13726501 921.47608813 976.1455753 936.97409073 976.15319599 C944.57525651 976.15693772 952.17642222 976.16082742 959.77758789 976.16479492 C960.53396052 976.1651872 961.29033315 976.16557948 962.06962616 976.16598364 C986.54779159 976.178748 1011.02593612 976.20126717 1035.50408891 976.22889166 C1060.6766893 976.257248 1085.84927814 976.27566988 1111.02189423 976.28174497 C1114.58438416 976.28260933 1118.14687405 976.28358623 1121.70936394 976.28463173 C1122.41045365 976.284834 1123.11154337 976.28503627 1123.83387823 976.28524467 C1135.08033358 976.28877793 1146.32675305 976.30265983 1157.57319382 976.3204961 C1168.90337954 976.33824128 1180.23351932 976.34464183 1191.56372226 976.34050413 C1197.69304423 976.33859043 1203.82226161 976.34143913 1209.95156479 976.35761642 C1215.57872589 976.37235882 1221.20571341 976.37286066 1226.83288299 976.36269668 C1228.85347078 976.36144298 1230.87407001 976.36512603 1232.89463574 976.37464955 C1251.48368361 976.45706928 1269.89657138 974.66712496 1288 970.3125 C1289.07556152 970.05686279 1290.15112305 969.80122559 1291.25927734 969.5378418 C1316.47693786 963.3287378 1341.05255091 953.21375892 1363.00878906 939.28564453 C1376.03567738 930.87470855 1388.06664434 921.71298848 1399.53125 911.24609375 C1401.18337465 909.74297401 1402.85030887 908.25597974 1404.53125 906.78515625 C1410.49404929 901.54930317 1415.85640689 896.04025752 1421 890 C1421.47808105 889.44489746 1421.95616211 888.88979492 1422.44873047 888.31787109 C1439.77809122 868.09025815 1454.27862705 844.80939127 1464.09765625 820.0078125 C1464.73704757 818.34055572 1465.37098227 816.67119811 1466 815 C1466.50442627 813.66340332 1466.50442627 813.66340332 1467.01904297 812.29980469 C1471.4108534 800.43840968 1474.78422501 788.50602404 1477.375 776.125 C1477.6136377 774.98627441 1477.85227539 773.84754883 1478.09814453 772.67431641 C1481.577352 755.07199198 1482.29664473 737.83038645 1482.2746582 719.93896484 C1482.27901553 717.57133831 1482.28420205 715.20371317 1482.29014587 712.83609009 C1482.30343918 706.45556663 1482.30412526 700.07510275 1482.30158257 693.69456816 C1482.30077794 689.69448316 1482.30293874 685.69440729 1482.30657005 681.69432449 C1482.30716524 681.02650452 1482.30776043 680.35868454 1482.30837366 679.6706276 C1482.30958564 678.31312476 1482.31079978 676.95562193 1482.31201603 675.59811909 C1482.32284975 662.91576517 1482.32074928 650.23343795 1482.31463119 637.55108257 C1482.30946895 626.00625742 1482.32070662 614.46151683 1482.33972941 602.91670839 C1482.35920921 591.00116396 1482.36734597 579.08565932 1482.36360615 567.1700989 C1482.36170898 560.50509326 1482.36430785 553.84014908 1482.37832069 547.17515182 C1482.39102401 540.89912994 1482.38883843 534.62327544 1482.37590981 528.34725571 C1482.3735712 526.06426432 1482.37617908 523.78126069 1482.38453293 521.49828339 C1482.48404086 492.15249565 1478.1391293 463.94913753 1468.71142578 436.12890625 C1459.36809642 409.59612511 1445.93445618 385.15066016 1428.60742188 362.99609375 C1424.95410466 358.45941064 1421.01154823 354.22116066 1417 350 C1415.78427491 348.6105999 1414.57537389 347.21518409 1413.375 345.8125 C1407.38174852 338.95510528 1400.93809498 332.96529872 1393.828125 327.2734375 C1392.02615055 325.82488898 1390.24248128 324.35305078 1388.484375 322.8515625 C1369.1013497 306.38193671 1346.04165352 293.61233763 1322.484375 284.16015625 C1294.28587154 273.20512825 1265.1517162 268.17545442 1235 267 C1222.5764722 266.64032792 1210.14050338 266.72460151 1197.7131956 266.74306489 C1192.73223189 266.74820588 1187.75128005 266.74159212 1182.77031809 266.73657823 C1174.06752688 266.72940079 1165.36476054 266.72954546 1156.66196823 266.73467255 C1143.7200772 266.7422761 1130.77820692 266.73835012 1117.836316 266.73225593 C1095.38400648 266.7220566 1072.93170727 266.72229089 1050.47939664 266.72791115 C1029.57609738 266.73314363 1008.67280245 266.73483649 987.76950264 266.73236847 C986.41146356 266.73221351 985.05342449 266.7320592 983.69538541 266.73190553 C978.23719904 266.73128453 972.77901267 266.73064719 967.3208263 266.729986 C952.06560473 266.72815252 936.81038315 266.72701093 921.55516148 266.72641373 C920.51337222 266.72637279 920.51337222 266.72637279 919.45053672 266.72633103 C897.33961012 266.72551319 875.22868491 266.72776252 853.11775875 266.73211288 C852.40123529 266.73225338 851.68471183 266.73239388 850.94647554 266.73253864 C839.31258306 266.73482819 827.67869061 266.73726727 816.04479817 266.73971898 C769.90868643 266.74943125 723.7725863 266.74897944 677.63647461 266.73925781 C666.00708232 266.73681519 654.37769002 266.73439299 642.74829769 266.73211288 C641.67402354 266.73190154 641.67402354 266.73190154 640.57804689 266.73168593 C618.4880462 266.72736998 596.39804648 266.72554568 574.30804539 266.72641373 C573.6140508 266.7264409 572.92005621 266.72646806 572.20503149 266.72649606 C556.9670162 266.72712116 541.72900102 266.72838874 526.49098584 266.73023473 C521.0381652 266.73089294 515.58534456 266.73151911 510.13252392 266.73213615 C508.77615773 266.73229093 507.41979153 266.73244839 506.06342534 266.73260855 C485.16885277 266.73506895 464.27428502 266.73263904 443.37971306 266.72740936 C420.38273426 266.72168205 397.38576823 266.72313929 374.38879102 266.73397085 C361.53240226 266.73982713 348.6760412 266.74025038 335.81965318 266.7326785 C327.21647375 266.72817214 318.61331638 266.73102362 310.01014021 266.73968804 C305.11902112 266.74441472 300.22795678 266.74613747 295.33683955 266.73887607 C255.84381188 266.68469997 218.05636309 268.47818984 180.59765625 282.32421875 Z M7.4375 1589.1875 C-1.06052601 1592.66580898 -8.28278611 1597.35411346 -15.25 1603.3125 C-20.8903259 1608.60476781 -24.98864027 1614.27613824 -28.65625 1621.06640625 C-32.29776668 1628.48331891 -34.89445363 1635.79520131 -36 1644 C-36.76955407 1652.4796934 -36.39971391 1660.53574065 -34.375 1668.8125 C-31.98594902 1676.69803891 -28.84710415 1683.83979178 -24.1875 1690.6484375 C-18.87883166 1697.60536173 -12.70850484 1703.52974518 -5.66796875 1708.71875 C1.31980755 1713.26138401 9.01424144 1715.77286067 17 1718 C23.93435698 1719.41554057 30.95406834 1719.59449529 38 1719 C46.15623442 1717.85753828 53.79319522 1715.34499826 61.25 1711.875 C68.27798311 1708.11286781 74.33868116 1703.61194687 80 1698 C85.97545913 1691.11610958 90.46042839 1683.38436025 94 1675 C96.57343853 1668.02356897 97.61578368 1661.02137543 97.99609375 1653.609375 C98.00391292 1646.3844654 97.07247964 1639.57632314 94.99609375 1632.65234375 C92.21858088 1624.96147477 88.7600947 1617.66413258 84 1611 C78.73253048 1604.56913828 72.68429631 1599.14808305 65.75 1594.5625 C58.57809161 1590.41489033 51.01271898 1587.95698482 43 1586 C30.74682085 1583.94697529 19.1528254 1584.96776194 7.4375 1589.1875 Z M1448.91015625 1589.06640625 C1446.18183646 1590.25246205 1443.59973384 1591.55439042 1441 1593 C1440.08734375 1593.50402344 1439.1746875 1594.00804687 1438.234375 1594.52734375 C1431.15903495 1598.72709168 1425.35563285 1603.75633914 1420 1610 C1414.70840219 1617.03483374 1410.87114367 1624.6876627 1408 1633 C1405.25734251 1642.06227738 1405.52802576 1651.06553902 1405.85644531 1660.46289062 C1406.14914724 1665.63594921 1407.10352216 1670.18794057 1409 1675 C1412.49689349 1683.34895166 1416.66025756 1690.68168461 1422.6328125 1697.5390625 C1428.32733582 1703.45911149 1434.38333819 1707.87024475 1441.625 1711.75 C1449.14742097 1715.31153626 1456.75639155 1717.76497969 1465 1719 C1472.21245584 1719.7219899 1479.05817192 1719.37233624 1486.13427734 1717.86621094 C1493.94290563 1715.99808251 1501.15619841 1713.23478477 1508 1709 C1511.51458109 1706.51703695 1514.78131085 1703.85356735 1518 1701 C1518.93779297 1700.20335937 1518.93779297 1700.20335937 1519.89453125 1699.390625 C1525.05725239 1694.68240978 1528.75951164 1688.90704733 1532.09521484 1682.79980469 C1535.06108403 1676.90007785 1537.24491779 1670.57211966 1538.609375 1664.1171875 C1539.64416282 1655.8595807 1539.89925527 1647.10669287 1538.31640625 1638.91015625 C1536.28494979 1630.74218402 1533.38288521 1623.19683923 1529 1616 C1524.24899746 1609.09949525 1518.71756257 1603.02304229 1512 1598 C1504.34431474 1592.93946229 1496.80044132 1589.12221571 1487.8984375 1586.67578125 C1484.20353343 1585.81430092 1480.79238185 1585.25282546 1477 1585 C1476.36578125 1584.9484375 1475.7315625 1584.896875 1475.078125 1584.84375 C1466.35845631 1584.45038149 1457.14561699 1586.22407909 1448.91015625 1589.06640625 Z " fill="#121212" transform="translate(304,178)"/>

</svg>
