<?xml version="1.0" encoding="UTF-8"?><svg id="Layer_1" xmlns="http://www.w3.org/2000/svg" viewBox="0 0 256 256"><path d="M99.68,87.08l-30.94,84.61h-21.54L14.71,87.08h22.97l20.59,58.19,20.47-58.19h20.94Z" style="fill:#fff; stroke:#fff; stroke-linecap:round; stroke-linejoin:round; stroke-width:6px;"/><path d="M136.09,172.88c-9.6,0-16.94-2.5-22.01-7.5-5.08-5-7.62-11.7-7.62-20.11v-35.34h19.28v34.39c0,3.33.87,5.95,2.62,7.85,1.74,1.9,4.24,2.86,7.5,2.86s5.89-.95,7.67-2.86c1.79-1.9,2.68-4.52,2.68-7.85v-34.39h19.16v35.34c0,8.25-2.52,14.92-7.56,19.99-5.04,5.08-12.28,7.62-21.72,7.62Z" style="fill:#fff; stroke:#fff; stroke-linecap:round; stroke-linejoin:round; stroke-width:6px;"/><path d="M208.8,108.38c9.28,0,16.66,2.92,22.13,8.75s8.21,13.71,8.21,23.62v3.33h-41.77c.24,4.12,1.49,7.44,3.75,9.94,2.26,2.5,5.25,3.75,8.98,3.75,4.2,0,7.42-1.51,9.64-4.52h19.04c-.24,2.14-.93,4.27-2.08,6.37-1.15,2.1-2.8,4.22-4.94,6.37-2.14,2.14-5.08,3.87-8.8,5.18-3.73,1.31-8.01,1.96-12.85,1.96-9.76,0-17.47-2.97-23.15-8.92-5.67-5.95-8.51-13.76-8.51-23.44s2.8-17.49,8.39-23.44c5.59-5.95,12.91-8.92,21.96-8.92ZM208.8,122.3c-3.09,0-5.61.93-7.56,2.8-1.94,1.87-3.15,4.38-3.63,7.56h22.25c-.56-3.25-1.79-5.79-3.69-7.62-1.9-1.82-4.36-2.74-7.38-2.74Z" style="fill:#fff; stroke:#fff; stroke-linecap:round; stroke-linejoin:round; stroke-width:6px;"/></svg>